<svg id="e4wfVejKCSI1" xmlns="http://www.w3.org/2000/svg" xmlns:xlink="http://www.w3.org/1999/xlink" viewBox="0 0 128 128" shape-rendering="geometricPrecision" text-rendering="geometricPrecision"><defs><linearGradient id="e4wfVejKCSI3-fill" x1="73.17" y1="82.03" x2="53.1" y2="42.57" spreadMethod="pad" gradientUnits="userSpaceOnUse" gradientTransform="matrix(1 0 0 1 0 0)"><stop id="e4wfVejKCSI3-fill-0" offset="0%" stop-color="rgb(247,147,30)"></stop><stop id="e4wfVejKCSI3-fill-1" offset="100%" stop-color="rgb(255,255,0)"></stop></linearGradient><filter id="e4wfVejKCSI4-filter" x="-400%" width="600%" y="-400%" height="600%"><feGaussianBlur id="e4wfVejKCSI4-filter-blur-0" stdDeviation="4,4" result="result"></feGaussianBlur></filter><filter id="e4wfVejKCSI5-filter" x="-400%" width="600%" y="-400%" height="600%"><feGaussianBlur id="e4wfVejKCSI5-filter-blur-0" stdDeviation="4,4" result="result"></feGaussianBlur></filter><linearGradient id="e4wfVejKCSI6-fill" x1="0.791691" y1="0.874398" x2="0.117174" y2="0.095549" spreadMethod="pad" gradientUnits="objectBoundingBox" gradientTransform="matrix(1 0 0 1 0 0)"><stop id="e4wfVejKCSI6-fill-0" offset="0%" stop-color="rgb(247,147,30)"></stop><stop id="e4wfVejKCSI6-fill-1" offset="100%" stop-color="rgb(255,255,0)"></stop></linearGradient><linearGradient id="e4wfVejKCSI6-stroke" x1="0.121726" y1="0.129493" x2="0.615527" y2="0.936272" spreadMethod="pad" gradientUnits="objectBoundingBox" gradientTransform="matrix(1 0 0 1 0 0)"><stop id="e4wfVejKCSI6-stroke-0" offset="0%" stop-color="rgb(255,255,0)"></stop><stop id="e4wfVejKCSI6-stroke-1" offset="100%" stop-color="rgb(247,147,30)"></stop></linearGradient><linearGradient id="e4wfVejKCSI7-fill" x1="0.791691" y1="0.874398" x2="0.117174" y2="0.095549" spreadMethod="pad" gradientUnits="objectBoundingBox" gradientTransform="matrix(1 0 0 1 0 0)"><stop id="e4wfVejKCSI7-fill-0" offset="0%" stop-color="rgb(247,147,30)"></stop><stop id="e4wfVejKCSI7-fill-1" offset="100%" stop-color="rgb(255,255,0)"></stop></linearGradient><linearGradient id="e4wfVejKCSI7-stroke" x1="0.121726" y1="0.129493" x2="0.615527" y2="0.936272" spreadMethod="pad" gradientUnits="objectBoundingBox" gradientTransform="matrix(1 0 0 1 0 0)"><stop id="e4wfVejKCSI7-stroke-0" offset="0%" stop-color="rgb(255,255,0)"></stop><stop id="e4wfVejKCSI7-stroke-1" offset="100%" stop-color="rgb(247,147,30)"></stop></linearGradient></defs><g id="e4wfVejKCSI2"><path id="e4wfVejKCSI3" display="none" d="M83.17,58L65.76,58L70.09,40.46C70.426627,39.153254,69.793816,37.790609,68.578243,37.204703C67.362671,36.618797,65.902516,36.972632,65.09,38.05L42.59,65.45C41.901717,66.295774,41.769253,67.46502,42.250884,68.443334C42.732515,69.421648,43.739961,70.029708,44.83,70L62.24,70L57.91,87.54C57.573373,88.846746,58.206184,90.209391,59.421757,90.795297C60.637329,91.381203,62.097484,91.027368,62.91,89.95L85.41,62.55C86.098283,61.704226,86.230747,60.53498,85.749116,59.556666C85.267485,58.578352,84.260039,57.970292,83.17,58Z" fill="url(#e4wfVejKCSI3-fill)" stroke="none" stroke-width="1"></path><path id="e4wfVejKCSI4" d="M 45.237506 68.030019 C 43.998848 68.070019 43.477506 67.470019 44.377506 66.290019 C 44.413257 66.277203 66.472671 39.509919 66.470457 39.426143 C 67.501822 38.24744 68.422684 39.358802 68.054339 40.494342 L 63.345335 59.965897 L 82.97032 59.942677 C 84.270064 59.97564 84.193076 60.965115 83.567358 61.764495 L 61.520252 88.576228 C 60.667913 89.516294 59.560252 89.355896 59.840252 87.976228 L 64.656664 68.144008 C 64.656664 68.144008 45.237506 68.030019 45.237506 68.030019 Z" transform="matrix(1 0 0 1 5.000002 5.000003)" opacity="0.4" filter="url(#e4wfVejKCSI4-filter)" fill="rgb(0,0,0)" stroke="rgb(0,0,0)" stroke-width="4" stroke-linecap="round" stroke-linejoin="round" fill-opacity="1"></path><path id="e4wfVejKCSI5" d="M45.237506,68.030019C43.998848,68.070019,43.477506,67.470019,44.377506,66.290019C44.413257,66.277203,66.472671,39.509919,66.470457,39.426143C67.501822,38.24744,68.422684,39.358802,68.054339,40.494342L63.345335,59.965897L82.97032,59.942677C84.270064,59.97564,84.193076,60.965115,83.567358,61.764495L61.520252,88.576228C60.667913,89.516294,59.560252,89.355896,59.840252,87.976228L64.656664,68.144008C64.656664,68.144008,45.237506,68.030019,45.237506,68.030019Z" transform="matrix(0 0 0 0 60.136857 90.954228)" opacity="0.4" filter="url(#e4wfVejKCSI5-filter)" fill="rgb(0,0,0)" stroke="rgb(0,0,0)" stroke-width="4" stroke-linecap="round" stroke-linejoin="round"></path><path id="e4wfVejKCSI6" d="M45.237506,68.030019C43.998848,68.070019,43.477506,67.470019,44.377506,66.290019C44.413257,66.277203,66.472671,39.509919,66.470457,39.426143C67.501822,38.24744,68.422684,39.358802,68.054339,40.494342L63.345335,59.965897L82.97032,59.942677C84.270064,59.97564,84.193076,60.965115,83.567358,61.764495L61.520252,88.576228C60.667913,89.516294,59.560252,89.355896,59.840252,87.976228L64.656664,68.144008C64.656664,68.144008,45.237506,68.030019,45.237506,68.030019Z" transform="matrix(0 0 0 0 60.136857 90.597209)" fill="url(#e4wfVejKCSI6-fill)" stroke="url(#e4wfVejKCSI6-stroke)" stroke-width="4" stroke-linecap="round" stroke-linejoin="round"></path><path id="e4wfVejKCSI7" d="M 45.237506 68.030019 C 43.998848 68.070019 43.477506 67.470019 44.377506 66.290019 C 44.413257 66.277203 66.472671 39.509919 66.470457 39.426143 C 67.501822 38.24744 68.422684 39.358802 68.054339 40.494342 L 63.345335 59.965897 L 82.97032 59.942677 C 84.270064 59.97564 84.193076 60.965115 83.567358 61.764495 L 61.520252 88.576228 C 60.667913 89.516294 59.560252 89.355896 59.840252 87.976228 L 64.656664 68.144008 C 64.656664 68.144008 45.237506 68.030019 45.237506 68.030019 Z" transform="matrix(1 0 0 1 0.000002 0.000003)" fill="url(#e4wfVejKCSI7-fill)" stroke="url(#e4wfVejKCSI7-stroke)" stroke-width="4" stroke-linecap="round" fill-opacity="1"></path><path id="e4wfVejKCSI8" d="M49.618217,91.668624L41.973996,87.171804" transform="matrix(-0.405366 0.914155 -0.914155 -0.405366 177.568207 85.684858)" opacity="0" fill="none" stroke="rgb(249,165,26)" stroke-width="4" stroke-linecap="round" stroke-linejoin="round" stroke-dashoffset="17.74" stroke-dasharray="0.01 8.87"></path><path id="e4wfVejKCSI9" d="M49.618217,91.668624L41.973996,87.171804" transform="matrix(1 0 0 1 0.000001 0)" opacity="1" fill="none" stroke="rgb(249,165,26)" stroke-width="4" stroke-linecap="round" stroke-linejoin="round" stroke-dashoffset="17.2538" stroke-dasharray="0.4977 8.3811"></path><path id="e4wfVejKCSI10" d="M49.618217,91.668624L41.973996,87.171804" transform="matrix(0.873063 0.487608 -0.487608 0.873063 56.006801 -15.806673)" opacity="0" fill="none" stroke="rgb(249,165,26)" stroke-width="4" stroke-linecap="round" stroke-linejoin="round" stroke-dashoffset="17.74" stroke-dasharray="0.01 8.87"></path><path id="e4wfVejKCSI11" d="M49.618217,91.668624L41.973996,87.171804" transform="matrix(-0.173828 0.984776 -0.984776 -0.173828 168.635415 55.966987)" opacity="0" fill="none" stroke="rgb(249,165,26)" stroke-width="4" stroke-linecap="round" stroke-linejoin="round" stroke-dashoffset="17.74" stroke-dasharray="0.01 8.87"></path></g><script>(function(s,i,u,o,c,w,d,t,n,x,e,p){w[o]=w[o]||{};w[o][s]=w[o][s]||[];w[o][s].push(i);e=d.createElementNS(n,t);e.async=true;e.setAttributeNS(x,'href',[u,s,'.','j','s','?','v','=',c].join(''));e.setAttributeNS(null,'src',[u,s,'.','j','s'].join(''));p=d.getElementsByTagName(t)[0];p.parentNode.insertBefore(e,p);})('91c80d77',{"root":"e4wfVejKCSI1","animations":[{"elements":{"e4wfVejKCSI4":{"d":[{"t":1300,"v":["M",69.0592,36.325926,"C",69.0592,36.325926,69.0592,36.325926,69.0592,36.325926,"C",69.0592,36.325926,69.0592,36.325926,69.0592,36.325926,"C",69.0592,36.325926,69.0592,36.325926,69.0592,36.325926,"L",69.0592,36.283836,"L",69.0592,36.241746,"C",69.0592,36.241746,69.0592,36.283836,69.0592,36.283836,"L",69.0592,36.283836,"C",69.0592,36.283836,69.0592,36.283836,69.0592,36.283836,"L",69.0592,36.283836,"C",69.0592,36.283836,69.0592,36.325926,69.0592,36.325926,"Z"]},{"t":1390,"v":["M",54.628222,59.258841,"C",53.991198,59.279413,53.723079,58.970841,54.185936,58.363984,"C",54.204323,58.357393,67.728985,37.963408,67.727846,37.920323,"C",68.258263,37.314133,68.731849,37.885691,68.542414,38.469683,"L",54.628222,58.363984,"L",80.557832,59.258841,"C",81.226272,59.275794,81.186678,59.80511,80.86488,60.21622,"L",64.863998,81.075198,"C",64.425652,81.558661,63.855998,81.47617,63.999998,80.766627,"L",75.494458,60.21622,"C",75.494458,60.21622,54.628222,59.258841,54.628222,59.258841,"Z"]},{"t":1480,"v":["M",45.237506,68.030019,"C",43.998848,68.070019,43.477506,67.470019,44.377506,66.290019,"C",44.413257,66.277203,66.472671,39.509919,66.470457,39.426143,"C",67.501822,38.24744,68.422684,39.358802,68.054339,40.494342,"L",63.345335,59.965897,"L",82.97032,59.942677,"C",84.270064,59.97564,84.193076,60.965115,83.567358,61.764495,"L",61.520252,88.576228,"C",60.667913,89.516294,59.560252,89.355896,59.840252,87.976228,"L",64.656664,68.144008,"C",64.656664,68.144008,45.237506,68.030019,45.237506,68.030019,"Z"]}],"fill-opacity":[{"t":1480,"v":1,"e":[1,0]},{"t":1580,"v":0,"e":[1,0]},{"t":1680,"v":0,"e":[1,0]},{"t":1780,"v":1,"e":[1,0]},{"t":1880,"v":0,"e":[1,0]},{"t":1980,"v":1}]},"e4wfVejKCSI5":{"transform":{"data":{"o":{"x":60.136857,"y":90.954228,"type":"corner"},"t":{"x":-55.136855,"y":-85.954225}},"keys":{"s":[{"t":1000,"v":{"x":1,"y":1},"e":[0.55,0.055,0.675,0.19]},{"t":1300,"v":{"x":0,"y":0}}]}}},"e4wfVejKCSI6":{"transform":{"data":{"o":{"x":60.136857,"y":90.597209,"type":"corner"},"t":{"x":-60.136855,"y":-90.597206}},"keys":{"s":[{"t":1000,"v":{"x":1,"y":1},"e":[0.55,0.055,0.675,0.19]},{"t":1300,"v":{"x":0,"y":0}}]}}},"e4wfVejKCSI7":{"d":[{"t":1300,"v":["M",69.0592,36.325926,"C",69.0592,36.325926,69.0592,36.325926,69.0592,36.325926,"C",69.0592,36.325926,69.0592,36.325926,69.0592,36.325926,"C",69.0592,36.325926,69.0592,36.325926,69.0592,36.325926,"L",69.0592,36.283836,"L",69.0592,36.241746,"C",69.0592,36.241746,69.0592,36.283836,69.0592,36.283836,"L",69.0592,36.283836,"C",69.0592,36.283836,69.0592,36.283836,69.0592,36.283836,"L",69.0592,36.283836,"C",69.0592,36.283836,69.0592,36.325926,69.0592,36.325926,"Z"]},{"t":1390,"v":["M",54.628222,59.258841,"C",53.991198,59.279413,53.723079,58.970841,54.185936,58.363984,"C",54.204323,58.357393,67.728985,37.963408,67.727846,37.920323,"C",68.258263,37.314133,68.731849,37.885691,68.542414,38.469683,"L",54.628222,58.363984,"L",80.557832,59.258841,"C",81.226272,59.275794,81.186678,59.80511,80.86488,60.21622,"L",64.863998,81.075198,"C",64.425652,81.558661,63.855998,81.47617,63.999998,80.766627,"L",75.494458,60.21622,"C",75.494458,60.21622,54.628222,59.258841,54.628222,59.258841,"Z"]},{"t":1480,"v":["M",45.237506,68.030019,"C",43.998848,68.070019,43.477506,67.470019,44.377506,66.290019,"C",44.413257,66.277203,66.472671,39.509919,66.470457,39.426143,"C",67.501822,38.24744,68.422684,39.358802,68.054339,40.494342,"L",63.345335,59.965897,"L",82.97032,59.942677,"C",84.270064,59.97564,84.193076,60.965115,83.567358,61.764495,"L",61.520252,88.576228,"C",60.667913,89.516294,59.560252,89.355896,59.840252,87.976228,"L",64.656664,68.144008,"C",64.656664,68.144008,45.237506,68.030019,45.237506,68.030019,"Z"]}],"fill-opacity":[{"t":1480,"v":1,"e":[1,0]},{"t":1580,"v":0,"e":[1,0]},{"t":1680,"v":0,"e":[1,0]},{"t":1780,"v":1,"e":[1,0]},{"t":1880,"v":0,"e":[1,0]},{"t":1980,"v":1}]},"e4wfVejKCSI8":{"opacity":[{"t":1610,"v":0},{"t":1620,"v":1},{"t":1800,"v":1},{"t":1810,"v":0}],"stroke-dashoffset":[{"t":1610,"v":17.74},{"t":1810,"v":8.9}],"stroke-dasharray":[{"t":1610,"v":[0.01,8.87]},{"t":1700,"v":[4,4.87]},{"t":1810,"v":[0.01,8.87]}]},"e4wfVejKCSI9":{"opacity":[{"t":1480,"v":0},{"t":1490,"v":1},{"t":1670,"v":1},{"t":1680,"v":0}],"stroke-dashoffset":[{"t":1480,"v":17.74},{"t":1680,"v":8.9}],"stroke-dasharray":[{"t":1480,"v":[0.01,8.87]},{"t":1570,"v":[4,4.87]},{"t":1680,"v":[0.01,8.87]}]},"e4wfVejKCSI10":{"opacity":[{"t":1600,"v":0},{"t":1610,"v":1},{"t":1790,"v":1},{"t":1800,"v":0}],"stroke-dashoffset":[{"t":1600,"v":17.74},{"t":1800,"v":8.9}],"stroke-dasharray":[{"t":1600,"v":[0.01,8.87]},{"t":1690,"v":[4,4.87]},{"t":1800,"v":[0.01,8.87]}]},"e4wfVejKCSI11":{"opacity":[{"t":1530,"v":0},{"t":1540,"v":1},{"t":1720,"v":1},{"t":1730,"v":0}],"stroke-dashoffset":[{"t":1530,"v":17.74},{"t":1730,"v":8.9}],"stroke-dasharray":[{"t":1530,"v":[0.01,8.87]},{"t":1620,"v":[4,4.87]},{"t":1730,"v":[0.01,8.87]}]}},"s":"MDMA1MzllNDU4NLzk4OTU4NDk3SOGM5MjkxNDUO1ZDU2NTM1M0Fk1MzRmNDU4NI0Y4Yzk1ODhHSODY5N0w4YzkCyVjkxRzQ1NWUQ1NDRmWTQ1OUGM5Nzg4OTU4PNDk3OGM5MjkGxOTY0NTVkNTCM0ZjQ1ODlSOPGM4ZjhmNDU1FZDU0NGY0NTgK0OGY5Nzg4OTNU5MTg0OTc4OTDQ1NWQ4OTg0MOGY5Nkg4ODRVmRDQ1OTY5MzUg4ODg4NzQ1NKWQ1NGEw"}],"options":"MDHAxZTkwMzc4OVDg5NzY4Nzg5VMzdLNGYzNzgK4Nzg4Nzg0ODME4MTM3NDEzNVzg4Nzg4Nzg0FODE4MTM3NGYW0NzRhOTI/"},'https://cdn.svgator.com/ply/','__SVGATOR_PLAYER__','2021-10-11',window,document,'script','http://www.w3.org/2000/svg','http://www.w3.org/1999/xlink')</script></svg>